<mxfile host="app.diagrams.net" modified="2020-08-09T21:46:43.146Z" agent="5.0 (Windows)" etag="qSC6lfrzMmItu_G0UGqa" version="13.0.6" type="github" pages="6">
  <diagram id="4iqDVYsqrEzfDlTGmH5O" name="Staff">
    <mxGraphModel dx="1278" dy="547" grid="1" gridSize="10" guides="1" tooltips="1" connect="1" arrows="1" fold="1" page="1" pageScale="1" pageWidth="827" pageHeight="1169" math="0" shadow="0">
      <root>
        <mxCell id="WgZ6yaLtYUhiMF-65j4d-0" />
        <mxCell id="WgZ6yaLtYUhiMF-65j4d-1" parent="WgZ6yaLtYUhiMF-65j4d-0" />
        <mxCell id="WgZ6yaLtYUhiMF-65j4d-2" value="&lt;h1&gt;Staff for Start of Term 2020/21&lt;br&gt;&lt;/h1&gt;&lt;p&gt;Lorem ipsum dolor sit amet, consectetur adipisicing elit, sed do eiusmod tempor incididunt ut labore et dolore magna aliqua.&lt;/p&gt;" style="text;html=1;strokeColor=none;fillColor=none;spacing=5;spacingTop=-20;whiteSpace=wrap;overflow=hidden;rounded=0;" parent="WgZ6yaLtYUhiMF-65j4d-1" vertex="1">
          <mxGeometry x="40" y="200" width="750" height="40" as="geometry" />
        </mxCell>
        <mxCell id="WgZ6yaLtYUhiMF-65j4d-3" value="&lt;div align=&quot;left&quot;&gt;&lt;p&gt;&lt;font style=&quot;font-size: 14px&quot; face=&quot;Helvetica&quot;&gt;&lt;font style=&quot;font-size: 18px&quot;&gt;7 Student Desk team members&lt;/font&gt;&lt;br&gt;&lt;/font&gt;&lt;/p&gt;&lt;/div&gt;&lt;div align=&quot;left&quot;&gt;&lt;p&gt;&lt;font style=&quot;font-size: 14px&quot; face=&quot;Helvetica&quot;&gt;&lt;font style=&quot;font-size: 14px&quot;&gt;6 student staff members (part time) - (called &lt;i&gt;students&lt;/i&gt;)&lt;/font&gt;&lt;br&gt;&lt;/font&gt;&lt;/p&gt;&lt;/div&gt;&lt;div align=&quot;left&quot;&gt;&lt;p&gt;&lt;font style=&quot;font-size: 14px&quot; size=&quot;3&quot; face=&quot;Helvetica&quot;&gt;15 temporary staff members - (called &lt;i&gt;temps&lt;/i&gt;)&lt;/font&gt;&lt;/p&gt;&lt;/div&gt;&lt;div align=&quot;left&quot;&gt;&lt;p&gt;&lt;font size=&quot;3&quot; face=&quot;Helvetica&quot;&gt;&lt;b&gt;Total - 28&lt;/b&gt;&lt;/font&gt;&lt;/p&gt;&lt;/div&gt;" style="text;html=1;strokeColor=none;fillColor=none;align=left;verticalAlign=middle;whiteSpace=wrap;rounded=0;" parent="WgZ6yaLtYUhiMF-65j4d-1" vertex="1">
          <mxGeometry x="46" y="290" width="710" height="40" as="geometry" />
        </mxCell>
      </root>
    </mxGraphModel>
  </diagram>
  <diagram id="prtHgNgQTEPvFCAcTncT" name="Call Centre">
    <mxGraphModel dx="1278" dy="547" grid="1" gridSize="10" guides="1" tooltips="1" connect="1" arrows="1" fold="1" page="1" pageScale="1" pageWidth="827" pageHeight="1169" math="0" shadow="0">
      <root>
        <mxCell id="0" />
        <mxCell id="1" parent="0" />
        <mxCell id="dNxyNK7c78bLwvsdeMH5-11" value="Orgchart" style="swimlane;html=1;startSize=0;horizontal=1;containerType=tree;glass=0;" parent="1" vertex="1">
          <mxGeometry x="40" y="100" width="710" height="420" as="geometry" />
        </mxCell>
        <mxCell id="mpPqkYA4ojd9sIFiPAxJ-5" value="" style="endArrow=blockThin;endFill=1;fontSize=11;edgeStyle=elbowEdgeStyle;elbow=vertical;rounded=0;" parent="dNxyNK7c78bLwvsdeMH5-11" source="mpPqkYA4ojd9sIFiPAxJ-2" target="mpPqkYA4ojd9sIFiPAxJ-6" edge="1">
          <mxGeometry relative="1" as="geometry" />
        </mxCell>
        <mxCell id="mpPqkYA4ojd9sIFiPAxJ-7" value="" style="endArrow=blockThin;endFill=1;fontSize=11;edgeStyle=elbowEdgeStyle;elbow=vertical;rounded=0;" parent="dNxyNK7c78bLwvsdeMH5-11" source="mpPqkYA4ojd9sIFiPAxJ-2" target="mpPqkYA4ojd9sIFiPAxJ-8" edge="1">
          <mxGeometry relative="1" as="geometry" />
        </mxCell>
        <mxCell id="mpPqkYA4ojd9sIFiPAxJ-3" value="" style="endArrow=blockThin;endFill=1;fontSize=11;edgeStyle=elbowEdgeStyle;elbow=vertical;rounded=0;" parent="dNxyNK7c78bLwvsdeMH5-11" source="mpPqkYA4ojd9sIFiPAxJ-2" target="mpPqkYA4ojd9sIFiPAxJ-4" edge="1">
          <mxGeometry relative="1" as="geometry" />
        </mxCell>
        <UserObject label="%name%&lt;br&gt;&lt;i style=&quot;color: gray&quot;&gt;%position%&lt;/i&gt;&lt;br&gt;&lt;a href=&quot;mailto:%email%&quot;&gt;Email&lt;/a&gt;" name="Evan Miller" position="CFO" location="Office 1" email="me@example.com" placeholders="1" link="https://www.draw.io" id="dNxyNK7c78bLwvsdeMH5-12">
          <mxCell style="label;image=https://cdn3.iconfinder.com/data/icons/user-avatars-1/512/users-9-2-128.png;whiteSpace=wrap;html=1;rounded=0;glass=0;treeMoving=1;treeFolding=1;" parent="dNxyNK7c78bLwvsdeMH5-11" vertex="1">
            <mxGeometry x="260" y="50" width="180" height="70" as="geometry" />
          </mxCell>
        </UserObject>
        <mxCell id="dNxyNK7c78bLwvsdeMH5-13" value="" style="endArrow=blockThin;endFill=1;fontSize=11;edgeStyle=elbowEdgeStyle;elbow=vertical;rounded=0;" parent="dNxyNK7c78bLwvsdeMH5-11" source="dNxyNK7c78bLwvsdeMH5-12" target="dNxyNK7c78bLwvsdeMH5-14" edge="1">
          <mxGeometry relative="1" as="geometry" />
        </mxCell>
        <UserObject label="Temp" name="Edward Morrison" position="Brand Manager" location="Office 2" email="me@example.com" placeholders="1" link="https://www.draw.io" id="dNxyNK7c78bLwvsdeMH5-14">
          <mxCell style="label;image=https://cdn3.iconfinder.com/data/icons/user-avatars-1/512/users-10-3-128.png;whiteSpace=wrap;html=1;rounded=0;glass=0;treeFolding=1;treeMoving=1;fillColor=#FFCCE6;" parent="dNxyNK7c78bLwvsdeMH5-11" vertex="1">
            <mxGeometry x="40" y="180" width="180" height="80" as="geometry" />
          </mxCell>
        </UserObject>
        <mxCell id="dNxyNK7c78bLwvsdeMH5-15" value="" style="endArrow=blockThin;endFill=1;fontSize=11;edgeStyle=elbowEdgeStyle;elbow=vertical;rounded=0;" parent="dNxyNK7c78bLwvsdeMH5-11" source="dNxyNK7c78bLwvsdeMH5-12" target="dNxyNK7c78bLwvsdeMH5-16" edge="1">
          <mxGeometry relative="1" as="geometry" />
        </mxCell>
        <UserObject label="Temp" name="Tessa Valet" position="HR Director" location="Office 4" email="me@example.com" placeholders="1" link="https://www.draw.io" id="dNxyNK7c78bLwvsdeMH5-16">
          <mxCell style="label;image=https://cdn3.iconfinder.com/data/icons/user-avatars-1/512/users-3-128.png;whiteSpace=wrap;html=1;rounded=0;glass=0;treeFolding=1;treeMoving=1;fillColor=#FFCCE6;" parent="dNxyNK7c78bLwvsdeMH5-11" vertex="1">
            <mxGeometry x="260" y="180" width="180" height="80" as="geometry" />
          </mxCell>
        </UserObject>
        <mxCell id="dNxyNK7c78bLwvsdeMH5-17" value="" style="endArrow=blockThin;endFill=1;fontSize=11;edgeStyle=elbowEdgeStyle;elbow=vertical;rounded=0;" parent="dNxyNK7c78bLwvsdeMH5-11" source="dNxyNK7c78bLwvsdeMH5-12" target="dNxyNK7c78bLwvsdeMH5-18" edge="1">
          <mxGeometry relative="1" as="geometry" />
        </mxCell>
        <UserObject label="Temp" name="Ron Donovan" position="System Admin" location="Office 3" email="me@example.com" placeholders="1" link="https://www.draw.io" id="dNxyNK7c78bLwvsdeMH5-18">
          <mxCell style="label;image=https://cdn3.iconfinder.com/data/icons/user-avatars-1/512/users-2-128.png;whiteSpace=wrap;html=1;rounded=0;glass=0;fillColor=#FFCCE6;" parent="dNxyNK7c78bLwvsdeMH5-11" vertex="1">
            <mxGeometry x="490" y="180" width="180" height="80" as="geometry" />
          </mxCell>
        </UserObject>
        <UserObject label="Temp" name="Edward Morrison" position="Brand Manager" location="Office 2" email="me@example.com" placeholders="1" link="https://www.draw.io" id="mpPqkYA4ojd9sIFiPAxJ-4">
          <mxCell style="label;image=https://cdn3.iconfinder.com/data/icons/user-avatars-1/512/users-10-3-128.png;whiteSpace=wrap;html=1;rounded=0;glass=0;treeFolding=1;treeMoving=1;fillColor=#FFCCE6;" parent="dNxyNK7c78bLwvsdeMH5-11" vertex="1">
            <mxGeometry x="35" y="320" width="180" height="80" as="geometry" />
          </mxCell>
        </UserObject>
        <UserObject label="Temp" name="Tessa Valet" position="HR Director" location="Office 4" email="me@example.com" placeholders="1" link="https://www.draw.io" id="mpPqkYA4ojd9sIFiPAxJ-6">
          <mxCell style="label;image=https://cdn3.iconfinder.com/data/icons/user-avatars-1/512/users-3-128.png;whiteSpace=wrap;html=1;rounded=0;glass=0;treeFolding=1;treeMoving=1;fillColor=#FFCCE6;" parent="dNxyNK7c78bLwvsdeMH5-11" vertex="1">
            <mxGeometry x="255" y="320" width="180" height="80" as="geometry" />
          </mxCell>
        </UserObject>
        <UserObject label="Temp" name="Ron Donovan" position="System Admin" location="Office 3" email="me@example.com" placeholders="1" link="https://www.draw.io" id="mpPqkYA4ojd9sIFiPAxJ-8">
          <mxCell style="label;image=https://cdn3.iconfinder.com/data/icons/user-avatars-1/512/users-2-128.png;whiteSpace=wrap;html=1;rounded=0;glass=0;fillColor=#FFCCE6;" parent="dNxyNK7c78bLwvsdeMH5-11" vertex="1">
            <mxGeometry x="485" y="320" width="180" height="80" as="geometry" />
          </mxCell>
        </UserObject>
        <UserObject label="&lt;div&gt;Stephen&lt;/div&gt;&lt;div&gt;&lt;i&gt;&lt;span style=&quot;font-weight: normal&quot;&gt;Supervisor&lt;/span&gt;&lt;/i&gt;&lt;br&gt;&lt;/div&gt;" name="Evan Miller" position="CFO" location="Office 1" email="me@example.com" placeholders="1" link="https://www.draw.io" id="mpPqkYA4ojd9sIFiPAxJ-2">
          <mxCell style="label;image=https://cdn3.iconfinder.com/data/icons/user-avatars-1/512/users-9-2-128.png;whiteSpace=wrap;html=1;rounded=0;glass=0;treeMoving=1;treeFolding=1;fillColor=#FFCCE6;" parent="dNxyNK7c78bLwvsdeMH5-11" vertex="1">
            <mxGeometry x="260" y="50" width="180" height="70" as="geometry" />
          </mxCell>
        </UserObject>
        <mxCell id="mpPqkYA4ojd9sIFiPAxJ-1" value="&lt;div&gt;&lt;font style=&quot;font-size: 12px&quot;&gt;&lt;font style=&quot;font-size: 18px&quot;&gt;Call Centre&lt;/font&gt;&lt;/font&gt;&lt;font size=&quot;3&quot;&gt;&lt;br&gt;&lt;/font&gt;&lt;/div&gt;" style="swimlane;html=1;startSize=90;horizontal=1;containerType=tree;glass=0;fillColor=#FFCCE6;" parent="1" vertex="1">
          <mxGeometry x="40" y="40" width="710" height="480" as="geometry" />
        </mxCell>
      </root>
    </mxGraphModel>
  </diagram>
  <diagram id="4EEXJUwQ04xbb809gkxL" name="Emails">
    <mxGraphModel dx="1278" dy="547" grid="1" gridSize="10" guides="1" tooltips="1" connect="1" arrows="1" fold="1" page="1" pageScale="1" pageWidth="827" pageHeight="1169" math="0" shadow="0">
      <root>
        <mxCell id="c_dwIqoF1U3oeTKJL0SB-0" />
        <mxCell id="c_dwIqoF1U3oeTKJL0SB-1" parent="c_dwIqoF1U3oeTKJL0SB-0" />
        <mxCell id="jJnrvG2KrYwrHSIJit2o-0" value="Orgchart" style="swimlane;html=1;startSize=0;horizontal=1;containerType=tree;glass=0;" parent="c_dwIqoF1U3oeTKJL0SB-1" vertex="1">
          <mxGeometry x="40" y="100" width="710" height="420" as="geometry" />
        </mxCell>
        <mxCell id="jJnrvG2KrYwrHSIJit2o-2" value="" style="endArrow=blockThin;endFill=1;fontSize=11;edgeStyle=elbowEdgeStyle;elbow=vertical;rounded=0;" parent="jJnrvG2KrYwrHSIJit2o-0" source="jJnrvG2KrYwrHSIJit2o-13" target="jJnrvG2KrYwrHSIJit2o-10" edge="1">
          <mxGeometry relative="1" as="geometry" />
        </mxCell>
        <UserObject label="Evan Miller&lt;br&gt;&lt;i style=&quot;color: gray&quot;&gt;CFO&lt;/i&gt;&lt;br&gt;&lt;a href=&quot;mailto:me@example.com&quot;&gt;Email&lt;/a&gt;" name="Evan Miller" position="CFO" location="Office 1" email="me@example.com" placeholders="1" link="https://www.draw.io" id="jJnrvG2KrYwrHSIJit2o-3">
          <mxCell style="label;image=https://cdn3.iconfinder.com/data/icons/user-avatars-1/512/users-9-2-128.png;whiteSpace=wrap;html=1;rounded=0;glass=0;treeMoving=1;treeFolding=1;" parent="jJnrvG2KrYwrHSIJit2o-0" vertex="1">
            <mxGeometry x="260" y="50" width="180" height="70" as="geometry" />
          </mxCell>
        </UserObject>
        <mxCell id="jJnrvG2KrYwrHSIJit2o-4" value="" style="endArrow=blockThin;endFill=1;fontSize=11;edgeStyle=elbowEdgeStyle;elbow=vertical;rounded=0;" parent="jJnrvG2KrYwrHSIJit2o-0" source="jJnrvG2KrYwrHSIJit2o-3" target="jJnrvG2KrYwrHSIJit2o-5" edge="1">
          <mxGeometry relative="1" as="geometry" />
        </mxCell>
        <UserObject label="Temp" name="Edward Morrison" position="Brand Manager" location="Office 2" email="me@example.com" placeholders="1" link="https://www.draw.io" id="jJnrvG2KrYwrHSIJit2o-5">
          <mxCell style="label;image=https://cdn3.iconfinder.com/data/icons/user-avatars-1/512/users-10-3-128.png;whiteSpace=wrap;html=1;rounded=0;glass=0;treeFolding=1;treeMoving=1;fillColor=#A9C4EB;" parent="jJnrvG2KrYwrHSIJit2o-0" vertex="1">
            <mxGeometry x="40" y="180" width="180" height="80" as="geometry" />
          </mxCell>
        </UserObject>
        <mxCell id="jJnrvG2KrYwrHSIJit2o-6" value="" style="endArrow=blockThin;endFill=1;fontSize=11;edgeStyle=elbowEdgeStyle;elbow=vertical;rounded=0;" parent="jJnrvG2KrYwrHSIJit2o-0" source="jJnrvG2KrYwrHSIJit2o-3" target="jJnrvG2KrYwrHSIJit2o-7" edge="1">
          <mxGeometry relative="1" as="geometry" />
        </mxCell>
        <UserObject label="Temp" name="Tessa Valet" position="HR Director" location="Office 4" email="me@example.com" placeholders="1" link="https://www.draw.io" id="jJnrvG2KrYwrHSIJit2o-7">
          <mxCell style="label;image=https://cdn3.iconfinder.com/data/icons/user-avatars-1/512/users-3-128.png;whiteSpace=wrap;html=1;rounded=0;glass=0;treeFolding=1;treeMoving=1;fillColor=#A9C4EB;" parent="jJnrvG2KrYwrHSIJit2o-0" vertex="1">
            <mxGeometry x="260" y="180" width="180" height="80" as="geometry" />
          </mxCell>
        </UserObject>
        <mxCell id="jJnrvG2KrYwrHSIJit2o-8" value="" style="endArrow=blockThin;endFill=1;fontSize=11;edgeStyle=elbowEdgeStyle;elbow=vertical;rounded=0;" parent="jJnrvG2KrYwrHSIJit2o-0" source="jJnrvG2KrYwrHSIJit2o-3" target="jJnrvG2KrYwrHSIJit2o-9" edge="1">
          <mxGeometry relative="1" as="geometry" />
        </mxCell>
        <UserObject label="Temp" name="Ron Donovan" position="System Admin" location="Office 3" email="me@example.com" placeholders="1" link="https://www.draw.io" id="jJnrvG2KrYwrHSIJit2o-9">
          <mxCell style="label;image=https://cdn3.iconfinder.com/data/icons/user-avatars-1/512/users-2-128.png;whiteSpace=wrap;html=1;rounded=0;glass=0;fillColor=#A9C4EB;" parent="jJnrvG2KrYwrHSIJit2o-0" vertex="1">
            <mxGeometry x="490" y="180" width="180" height="80" as="geometry" />
          </mxCell>
        </UserObject>
        <UserObject label="Temp" name="Edward Morrison" position="Brand Manager" location="Office 2" email="me@example.com" placeholders="1" link="https://www.draw.io" id="jJnrvG2KrYwrHSIJit2o-10">
          <mxCell style="label;image=https://cdn3.iconfinder.com/data/icons/user-avatars-1/512/users-10-3-128.png;whiteSpace=wrap;html=1;rounded=0;glass=0;treeFolding=1;treeMoving=1;fillColor=#A9C4EB;" parent="jJnrvG2KrYwrHSIJit2o-0" vertex="1">
            <mxGeometry x="35" y="320" width="180" height="80" as="geometry" />
          </mxCell>
        </UserObject>
        <UserObject label="&lt;div&gt;Katie&lt;/div&gt;&lt;div&gt;&lt;span style=&quot;font-weight: normal&quot;&gt;&lt;i&gt;Supervisor&lt;/i&gt;&lt;/span&gt;&lt;br&gt;&lt;/div&gt;" name="Evan Miller" position="CFO" location="Office 1" email="me@example.com" placeholders="1" link="https://www.draw.io" id="jJnrvG2KrYwrHSIJit2o-13">
          <mxCell style="label;image=https://cdn3.iconfinder.com/data/icons/user-avatars-1/512/users-9-2-128.png;whiteSpace=wrap;html=1;rounded=0;glass=0;treeMoving=1;treeFolding=1;fillColor=#A9C4EB;" parent="jJnrvG2KrYwrHSIJit2o-0" vertex="1">
            <mxGeometry x="260" y="50" width="180" height="70" as="geometry" />
          </mxCell>
        </UserObject>
        <UserObject label="Student" name="Tessa Valet" position="HR Director" location="Office 4" email="me@example.com" placeholders="1" link="https://www.draw.io" id="GuNBn-XLrfUnzHdGbUQW-0">
          <mxCell style="label;image=https://cdn3.iconfinder.com/data/icons/user-avatars-1/512/users-3-128.png;whiteSpace=wrap;html=1;rounded=0;glass=0;treeFolding=1;treeMoving=1;fillColor=#A9C4EB;" parent="jJnrvG2KrYwrHSIJit2o-0" vertex="1">
            <mxGeometry x="260" y="320" width="180" height="80" as="geometry" />
          </mxCell>
        </UserObject>
        <mxCell id="jJnrvG2KrYwrHSIJit2o-15" value="&lt;div&gt;&lt;font style=&quot;font-size: 12px&quot;&gt;&lt;font style=&quot;font-size: 18px&quot;&gt;Emails&lt;/font&gt;&lt;/font&gt;&lt;font size=&quot;3&quot;&gt;&lt;br&gt;&lt;/font&gt;&lt;/div&gt;" style="swimlane;html=1;startSize=90;horizontal=1;containerType=tree;glass=0;fillColor=#A9C4EB;" parent="c_dwIqoF1U3oeTKJL0SB-1" vertex="1">
          <mxGeometry x="40" y="40" width="710" height="480" as="geometry" />
        </mxCell>
        <mxCell id="WzX2U5M_frZ9KbMTsoTq-0" value="FFF4C3" style="text;whiteSpace=wrap;html=1;" parent="c_dwIqoF1U3oeTKJL0SB-1" vertex="1">
          <mxGeometry x="10" y="10" width="70" height="30" as="geometry" />
        </mxCell>
      </root>
    </mxGraphModel>
  </diagram>
  <diagram id="ItSz2k4_egUY5C8dJ0sC" name="Chats">
    <mxGraphModel dx="1278" dy="547" grid="1" gridSize="10" guides="1" tooltips="1" connect="1" arrows="1" fold="1" page="1" pageScale="1" pageWidth="827" pageHeight="1169" math="0" shadow="0">
      <root>
        <mxCell id="B8h6JImKgBRVj9SWQ-2g-0" />
        <mxCell id="B8h6JImKgBRVj9SWQ-2g-1" parent="B8h6JImKgBRVj9SWQ-2g-0" />
        <mxCell id="vtGu4bik4G_jgbkDdIcN-0" value="Orgchart" style="swimlane;html=1;startSize=0;horizontal=1;containerType=tree;glass=0;" parent="B8h6JImKgBRVj9SWQ-2g-1" vertex="1">
          <mxGeometry x="40" y="100" width="710" height="420" as="geometry" />
        </mxCell>
        <mxCell id="vtGu4bik4G_jgbkDdIcN-2" value="" style="endArrow=blockThin;endFill=1;fontSize=11;edgeStyle=elbowEdgeStyle;elbow=vertical;rounded=0;" parent="vtGu4bik4G_jgbkDdIcN-0" source="vtGu4bik4G_jgbkDdIcN-13" target="vtGu4bik4G_jgbkDdIcN-10" edge="1">
          <mxGeometry relative="1" as="geometry" />
        </mxCell>
        <UserObject label="Evan Miller&lt;br&gt;&lt;i style=&quot;color: gray&quot;&gt;CFO&lt;/i&gt;&lt;br&gt;&lt;a href=&quot;mailto:me@example.com&quot;&gt;Email&lt;/a&gt;" name="Evan Miller" position="CFO" location="Office 1" email="me@example.com" placeholders="1" link="https://www.draw.io" id="vtGu4bik4G_jgbkDdIcN-3">
          <mxCell style="label;image=https://cdn3.iconfinder.com/data/icons/user-avatars-1/512/users-9-2-128.png;whiteSpace=wrap;html=1;rounded=0;glass=0;treeMoving=1;treeFolding=1;" parent="vtGu4bik4G_jgbkDdIcN-0" vertex="1">
            <mxGeometry x="260" y="50" width="180" height="70" as="geometry" />
          </mxCell>
        </UserObject>
        <mxCell id="vtGu4bik4G_jgbkDdIcN-4" value="" style="endArrow=blockThin;endFill=1;fontSize=11;edgeStyle=elbowEdgeStyle;elbow=vertical;rounded=0;" parent="vtGu4bik4G_jgbkDdIcN-0" source="vtGu4bik4G_jgbkDdIcN-3" target="vtGu4bik4G_jgbkDdIcN-5" edge="1">
          <mxGeometry relative="1" as="geometry" />
        </mxCell>
        <UserObject label="&lt;div&gt;Temp&lt;/div&gt;" name="Edward Morrison" position="Brand Manager" location="Office 2" email="me@example.com" placeholders="1" link="https://www.draw.io" id="vtGu4bik4G_jgbkDdIcN-5">
          <mxCell style="label;image=https://cdn3.iconfinder.com/data/icons/user-avatars-1/512/users-10-3-128.png;whiteSpace=wrap;html=1;rounded=0;glass=0;treeFolding=1;treeMoving=1;fillColor=#FFF4C3;" parent="vtGu4bik4G_jgbkDdIcN-0" vertex="1">
            <mxGeometry x="40" y="180" width="180" height="80" as="geometry" />
          </mxCell>
        </UserObject>
        <mxCell id="vtGu4bik4G_jgbkDdIcN-6" value="" style="endArrow=blockThin;endFill=1;fontSize=11;edgeStyle=elbowEdgeStyle;elbow=vertical;rounded=0;" parent="vtGu4bik4G_jgbkDdIcN-0" source="vtGu4bik4G_jgbkDdIcN-3" target="vtGu4bik4G_jgbkDdIcN-7" edge="1">
          <mxGeometry relative="1" as="geometry" />
        </mxCell>
        <UserObject label="Temp" name="Tessa Valet" position="HR Director" location="Office 4" email="me@example.com" placeholders="1" link="https://www.draw.io" id="vtGu4bik4G_jgbkDdIcN-7">
          <mxCell style="label;image=https://cdn3.iconfinder.com/data/icons/user-avatars-1/512/users-3-128.png;whiteSpace=wrap;html=1;rounded=0;glass=0;treeFolding=1;treeMoving=1;fillColor=#FFF4C3;" parent="vtGu4bik4G_jgbkDdIcN-0" vertex="1">
            <mxGeometry x="260" y="180" width="180" height="80" as="geometry" />
          </mxCell>
        </UserObject>
        <mxCell id="vtGu4bik4G_jgbkDdIcN-8" value="" style="endArrow=blockThin;endFill=1;fontSize=11;edgeStyle=elbowEdgeStyle;elbow=vertical;rounded=0;" parent="vtGu4bik4G_jgbkDdIcN-0" source="vtGu4bik4G_jgbkDdIcN-3" target="vtGu4bik4G_jgbkDdIcN-9" edge="1">
          <mxGeometry relative="1" as="geometry" />
        </mxCell>
        <UserObject label="Temp" name="Ron Donovan" position="System Admin" location="Office 3" email="me@example.com" placeholders="1" link="https://www.draw.io" id="vtGu4bik4G_jgbkDdIcN-9">
          <mxCell style="label;image=https://cdn3.iconfinder.com/data/icons/user-avatars-1/512/users-2-128.png;whiteSpace=wrap;html=1;rounded=0;glass=0;fillColor=#FFF4C3;" parent="vtGu4bik4G_jgbkDdIcN-0" vertex="1">
            <mxGeometry x="490" y="180" width="180" height="80" as="geometry" />
          </mxCell>
        </UserObject>
        <UserObject label="Student" name="Edward Morrison" position="Brand Manager" location="Office 2" email="me@example.com" placeholders="1" link="https://www.draw.io" id="vtGu4bik4G_jgbkDdIcN-10">
          <mxCell style="label;image=https://cdn3.iconfinder.com/data/icons/user-avatars-1/512/users-10-3-128.png;whiteSpace=wrap;html=1;rounded=0;glass=0;treeFolding=1;treeMoving=1;fillColor=#FFF4C3;" parent="vtGu4bik4G_jgbkDdIcN-0" vertex="1">
            <mxGeometry x="490" y="320" width="180" height="80" as="geometry" />
          </mxCell>
        </UserObject>
        <UserObject label="&lt;div&gt;Krystyna&lt;br&gt;&lt;/div&gt;&lt;div&gt;&lt;span style=&quot;font-weight: normal&quot;&gt;&lt;i&gt;Supervisor&lt;/i&gt;&lt;/span&gt;&lt;br&gt;&lt;/div&gt;" name="Evan Miller" position="CFO" location="Office 1" email="me@example.com" placeholders="1" link="https://www.draw.io" id="vtGu4bik4G_jgbkDdIcN-13">
          <mxCell style="label;image=https://cdn3.iconfinder.com/data/icons/user-avatars-1/512/users-9-2-128.png;whiteSpace=wrap;html=1;rounded=0;glass=0;treeMoving=1;treeFolding=1;fillColor=#FFF4C3;" parent="vtGu4bik4G_jgbkDdIcN-0" vertex="1">
            <mxGeometry x="260" y="50" width="180" height="70" as="geometry" />
          </mxCell>
        </UserObject>
        <UserObject label="Temp" name="Tessa Valet" position="HR Director" location="Office 4" email="me@example.com" placeholders="1" link="https://www.draw.io" id="PbnccIrj63OAILWoPI2o-0">
          <mxCell style="label;image=https://cdn3.iconfinder.com/data/icons/user-avatars-1/512/users-3-128.png;whiteSpace=wrap;html=1;rounded=0;glass=0;treeFolding=1;treeMoving=1;fillColor=#FFF4C3;" parent="vtGu4bik4G_jgbkDdIcN-0" vertex="1">
            <mxGeometry x="260" y="320" width="180" height="80" as="geometry" />
          </mxCell>
        </UserObject>
        <mxCell id="vtGu4bik4G_jgbkDdIcN-15" value="&lt;div&gt;&lt;font style=&quot;font-size: 12px&quot;&gt;&lt;font style=&quot;font-size: 18px&quot;&gt;Chats&lt;/font&gt;&lt;/font&gt;&lt;font size=&quot;3&quot;&gt;&lt;br&gt;&lt;/font&gt;&lt;/div&gt;" style="swimlane;html=1;startSize=90;horizontal=1;containerType=tree;glass=0;fillColor=#FFF4C3;" parent="B8h6JImKgBRVj9SWQ-2g-1" vertex="1">
          <mxGeometry x="40" y="40" width="710" height="480" as="geometry" />
        </mxCell>
        <UserObject label="Temp" name="Tessa Valet" position="HR Director" location="Office 4" email="me@example.com" placeholders="1" link="https://www.draw.io" id="_xehMGhk17uKjtey7Ze9-0">
          <mxCell style="label;image=https://cdn3.iconfinder.com/data/icons/user-avatars-1/512/users-3-128.png;whiteSpace=wrap;html=1;rounded=0;glass=0;treeFolding=1;treeMoving=1;fillColor=#FFF4C3;" parent="B8h6JImKgBRVj9SWQ-2g-1" vertex="1">
            <mxGeometry x="300" y="280" width="180" height="80" as="geometry" />
          </mxCell>
        </UserObject>
        <UserObject label="Temp" name="Ron Donovan" position="System Admin" location="Office 3" email="me@example.com" placeholders="1" link="https://www.draw.io" id="_xehMGhk17uKjtey7Ze9-1">
          <mxCell style="label;image=https://cdn3.iconfinder.com/data/icons/user-avatars-1/512/users-2-128.png;whiteSpace=wrap;html=1;rounded=0;glass=0;fillColor=#FFF4C3;" parent="B8h6JImKgBRVj9SWQ-2g-1" vertex="1">
            <mxGeometry x="530" y="280" width="180" height="80" as="geometry" />
          </mxCell>
        </UserObject>
      </root>
    </mxGraphModel>
  </diagram>
  <diagram id="SL8nusviX4BlKlo3T0ga" name="Desk">
    <mxGraphModel dx="1278" dy="547" grid="1" gridSize="10" guides="1" tooltips="1" connect="1" arrows="1" fold="1" page="1" pageScale="1" pageWidth="827" pageHeight="1169" math="0" shadow="0">
      <root>
        <mxCell id="oONjgDCelnidwvqjjCqV-0" />
        <mxCell id="oONjgDCelnidwvqjjCqV-1" parent="oONjgDCelnidwvqjjCqV-0" />
        <mxCell id="GRQZGqnQ31x8N4t46l1l-0" value="Orgchart" style="swimlane;html=1;startSize=0;horizontal=1;containerType=tree;glass=0;" parent="oONjgDCelnidwvqjjCqV-1" vertex="1">
          <mxGeometry x="40" y="100" width="710" height="420" as="geometry" />
        </mxCell>
        <UserObject label="Evan Miller&lt;br&gt;&lt;i style=&quot;color: gray&quot;&gt;CFO&lt;/i&gt;&lt;br&gt;&lt;a href=&quot;mailto:me@example.com&quot;&gt;Email&lt;/a&gt;" name="Evan Miller" position="CFO" location="Office 1" email="me@example.com" placeholders="1" link="https://www.draw.io" id="GRQZGqnQ31x8N4t46l1l-4">
          <mxCell style="label;image=https://cdn3.iconfinder.com/data/icons/user-avatars-1/512/users-9-2-128.png;whiteSpace=wrap;html=1;rounded=0;glass=0;treeMoving=1;treeFolding=1;" parent="GRQZGqnQ31x8N4t46l1l-0" vertex="1">
            <mxGeometry x="260" y="50" width="180" height="70" as="geometry" />
          </mxCell>
        </UserObject>
        <mxCell id="GRQZGqnQ31x8N4t46l1l-5" value="" style="endArrow=blockThin;endFill=1;fontSize=11;edgeStyle=elbowEdgeStyle;elbow=vertical;rounded=0;" parent="GRQZGqnQ31x8N4t46l1l-0" source="GRQZGqnQ31x8N4t46l1l-4" target="GRQZGqnQ31x8N4t46l1l-6" edge="1">
          <mxGeometry relative="1" as="geometry" />
        </mxCell>
        <UserObject label="Student" name="Edward Morrison" position="Brand Manager" location="Office 2" email="me@example.com" placeholders="1" link="https://www.draw.io" id="GRQZGqnQ31x8N4t46l1l-6">
          <mxCell style="label;image=https://cdn3.iconfinder.com/data/icons/user-avatars-1/512/users-10-3-128.png;whiteSpace=wrap;html=1;rounded=0;glass=0;treeFolding=1;treeMoving=1;fillColor=#D5E8D4;" parent="GRQZGqnQ31x8N4t46l1l-0" vertex="1">
            <mxGeometry x="40" y="180" width="180" height="80" as="geometry" />
          </mxCell>
        </UserObject>
        <mxCell id="GRQZGqnQ31x8N4t46l1l-7" value="" style="endArrow=blockThin;endFill=1;fontSize=11;edgeStyle=elbowEdgeStyle;elbow=vertical;rounded=0;" parent="GRQZGqnQ31x8N4t46l1l-0" source="GRQZGqnQ31x8N4t46l1l-4" target="GRQZGqnQ31x8N4t46l1l-8" edge="1">
          <mxGeometry relative="1" as="geometry" />
        </mxCell>
        <UserObject label="Student" name="Tessa Valet" position="HR Director" location="Office 4" email="me@example.com" placeholders="1" link="https://www.draw.io" id="GRQZGqnQ31x8N4t46l1l-8">
          <mxCell style="label;image=https://cdn3.iconfinder.com/data/icons/user-avatars-1/512/users-3-128.png;whiteSpace=wrap;html=1;rounded=0;glass=0;treeFolding=1;treeMoving=1;fillColor=#D5E8D4;" parent="GRQZGqnQ31x8N4t46l1l-0" vertex="1">
            <mxGeometry x="260" y="180" width="180" height="80" as="geometry" />
          </mxCell>
        </UserObject>
        <mxCell id="GRQZGqnQ31x8N4t46l1l-9" value="" style="endArrow=blockThin;endFill=1;fontSize=11;edgeStyle=elbowEdgeStyle;elbow=vertical;rounded=0;" parent="GRQZGqnQ31x8N4t46l1l-0" source="GRQZGqnQ31x8N4t46l1l-4" target="GRQZGqnQ31x8N4t46l1l-10" edge="1">
          <mxGeometry relative="1" as="geometry" />
        </mxCell>
        <UserObject label="Temp" name="Ron Donovan" position="System Admin" location="Office 3" email="me@example.com" placeholders="1" link="https://www.draw.io" id="GRQZGqnQ31x8N4t46l1l-10">
          <mxCell style="label;image=https://cdn3.iconfinder.com/data/icons/user-avatars-1/512/users-2-128.png;whiteSpace=wrap;html=1;rounded=0;glass=0;fillColor=#D5E8D4;" parent="GRQZGqnQ31x8N4t46l1l-0" vertex="1">
            <mxGeometry x="490" y="180" width="180" height="80" as="geometry" />
          </mxCell>
        </UserObject>
        <UserObject label="Lisa&lt;br&gt;&lt;div&gt;&lt;span style=&quot;font-weight: normal&quot;&gt;&lt;i&gt;Supervisor&lt;/i&gt;&lt;/span&gt;&lt;br&gt;&lt;/div&gt;" name="Evan Miller" position="CFO" location="Office 1" email="me@example.com" placeholders="1" link="https://www.draw.io" id="GRQZGqnQ31x8N4t46l1l-14">
          <mxCell style="label;image=https://cdn3.iconfinder.com/data/icons/user-avatars-1/512/users-9-2-128.png;whiteSpace=wrap;html=1;rounded=0;glass=0;treeMoving=1;treeFolding=1;fillColor=#D5E8D4;" parent="GRQZGqnQ31x8N4t46l1l-0" vertex="1">
            <mxGeometry x="260" y="50" width="180" height="70" as="geometry" />
          </mxCell>
        </UserObject>
        <mxCell id="GRQZGqnQ31x8N4t46l1l-15" value="&lt;br&gt;&lt;div&gt;&lt;font style=&quot;font-size: 12px&quot;&gt;&lt;font style=&quot;font-size: 18px&quot;&gt;Desk&lt;/font&gt;&lt;/font&gt;&lt;font size=&quot;3&quot;&gt;&lt;br&gt;&lt;/font&gt;&lt;/div&gt;" style="swimlane;html=1;startSize=90;horizontal=1;containerType=tree;glass=0;fillColor=#D5E8D4;" parent="oONjgDCelnidwvqjjCqV-1" vertex="1">
          <mxGeometry x="40" y="40" width="710" height="480" as="geometry" />
        </mxCell>
      </root>
    </mxGraphModel>
  </diagram>
  <diagram id="RJBUK2sWp0l0Kf9ra8K0" name="Offical Documents">
    <mxGraphModel dx="1278" dy="547" grid="1" gridSize="10" guides="1" tooltips="1" connect="1" arrows="1" fold="1" page="1" pageScale="1" pageWidth="827" pageHeight="1169" math="0" shadow="0">
      <root>
        <mxCell id="qkh9y1RFPqXm62vHj_Fj-0" />
        <mxCell id="qkh9y1RFPqXm62vHj_Fj-1" parent="qkh9y1RFPqXm62vHj_Fj-0" />
        <mxCell id="_5Ril9yyMndJcqkaI9xc-0" value="Orgchart" style="swimlane;html=1;startSize=0;horizontal=1;containerType=tree;glass=0;" parent="qkh9y1RFPqXm62vHj_Fj-1" vertex="1">
          <mxGeometry x="40" y="100" width="710" height="420" as="geometry" />
        </mxCell>
        <UserObject label="Evan Miller&lt;br&gt;&lt;i style=&quot;color: gray&quot;&gt;CFO&lt;/i&gt;&lt;br&gt;&lt;a href=&quot;mailto:me@example.com&quot;&gt;Email&lt;/a&gt;" name="Evan Miller" position="CFO" location="Office 1" email="me@example.com" placeholders="1" link="https://www.draw.io" id="_5Ril9yyMndJcqkaI9xc-1">
          <mxCell style="label;image=https://cdn3.iconfinder.com/data/icons/user-avatars-1/512/users-9-2-128.png;whiteSpace=wrap;html=1;rounded=0;glass=0;treeMoving=1;treeFolding=1;" parent="_5Ril9yyMndJcqkaI9xc-0" vertex="1">
            <mxGeometry x="260" y="50" width="180" height="70" as="geometry" />
          </mxCell>
        </UserObject>
        <mxCell id="_5Ril9yyMndJcqkaI9xc-4" value="" style="endArrow=blockThin;endFill=1;fontSize=11;edgeStyle=elbowEdgeStyle;elbow=vertical;rounded=0;" parent="_5Ril9yyMndJcqkaI9xc-0" source="_5Ril9yyMndJcqkaI9xc-1" target="_5Ril9yyMndJcqkaI9xc-5" edge="1">
          <mxGeometry relative="1" as="geometry" />
        </mxCell>
        <UserObject label="&lt;div&gt;Temp&lt;br&gt;&lt;/div&gt;" name="Tessa Valet" position="HR Director" location="Office 4" email="me@example.com" placeholders="1" link="https://www.draw.io" id="_5Ril9yyMndJcqkaI9xc-5">
          <mxCell style="label;image=https://cdn3.iconfinder.com/data/icons/user-avatars-1/512/users-3-128.png;whiteSpace=wrap;html=1;rounded=0;glass=0;treeFolding=1;treeMoving=1;fillColor=#E1D5E7;" parent="_5Ril9yyMndJcqkaI9xc-0" vertex="1">
            <mxGeometry x="260" y="180" width="180" height="80" as="geometry" />
          </mxCell>
        </UserObject>
        <UserObject label="&lt;div&gt;Eamonn&lt;/div&gt;&lt;div&gt;&lt;span style=&quot;font-weight: normal&quot;&gt;&lt;i&gt;Supervisor&lt;/i&gt;&lt;/span&gt;&lt;br&gt;&lt;/div&gt;" name="Evan Miller" position="CFO" location="Office 1" email="me@example.com" placeholders="1" link="https://www.draw.io" id="_5Ril9yyMndJcqkaI9xc-8">
          <mxCell style="label;image=https://cdn3.iconfinder.com/data/icons/user-avatars-1/512/users-9-2-128.png;whiteSpace=wrap;html=1;rounded=0;glass=0;treeMoving=1;treeFolding=1;fillColor=#E1D5E7;" parent="_5Ril9yyMndJcqkaI9xc-0" vertex="1">
            <mxGeometry x="260" y="50" width="180" height="70" as="geometry" />
          </mxCell>
        </UserObject>
        <mxCell id="_5Ril9yyMndJcqkaI9xc-9" value="&lt;br&gt;&lt;div&gt;&lt;font style=&quot;font-size: 12px&quot;&gt;&lt;font style=&quot;font-size: 18px&quot;&gt;Official Documents&lt;/font&gt;&lt;/font&gt;&lt;font size=&quot;3&quot;&gt;&lt;br&gt;&lt;/font&gt;&lt;/div&gt;" style="swimlane;html=1;startSize=90;horizontal=1;containerType=tree;glass=0;fillColor=#E1D5E7;" parent="qkh9y1RFPqXm62vHj_Fj-1" vertex="1">
          <mxGeometry x="40" y="40" width="710" height="480" as="geometry" />
        </mxCell>
      </root>
    </mxGraphModel>
  </diagram>
</mxfile>
